<svg height="20" viewBox="0 0 20 20" width="20" xmlns="http://www.w3.org/2000/svg">
    <g fill="none" fill-rule="evenodd">
        <circle cx="10" cy="10" r="9.75" stroke="#000" stroke-width=".5" />
        <path
            d="M10.347 10.347h5.447c.192 0 .348-.155.348-.347 0-.192-.156-.347-.348-.347h-5.447V4.206c0-.192-.155-.348-.347-.348-.192 0-.347.156-.347.348v5.447H4.206c-.192 0-.348.155-.348.347 0 .096.04.183.102.246.063.062.15.101.246.101h5.447v5.447c0 .096.039.183.101.246.063.063.15.102.246.102.192 0 .347-.156.347-.348v-5.447z"
            fill="#000" fill-rule="nonzero" />
    </g>
</svg>
